<mxfile host="app.diagrams.net" agent="Mozilla/5.0 (X11; Linux x86_64) AppleWebKit/537.36 (KHTML, like Gecko) Chrome/130.0.0.0 Safari/537.36" version="24.8.4">
  <diagram id="vaF3DrGFi1pyRu-lgNmV" name="Página-1">
    <mxGraphModel dx="6285" dy="3665" grid="1" gridSize="10" guides="1" tooltips="1" connect="1" arrows="1" fold="1" page="0" pageScale="1" pageWidth="827" pageHeight="1169" math="0" shadow="0">
      <root>
        <mxCell id="0" />
        <mxCell id="1" parent="0" />
        <mxCell id="fmr0Tmu_XqEPMl78r0tC-118" value="" style="rounded=0;whiteSpace=wrap;html=1;" parent="1" vertex="1">
          <mxGeometry x="-600" y="-480" width="1520" height="40" as="geometry" />
        </mxCell>
        <mxCell id="KVfynKzxWFTU4O8-inOF-39" value="" style="rounded=0;whiteSpace=wrap;html=1;" vertex="1" parent="1">
          <mxGeometry x="-3040" y="-600" width="1680" height="2440" as="geometry" />
        </mxCell>
        <mxCell id="KVfynKzxWFTU4O8-inOF-59" value="" style="rounded=0;whiteSpace=wrap;html=1;fillColor=#ffe6cc;strokeColor=none;opacity=50;" vertex="1" parent="1">
          <mxGeometry x="-1880" y="-520" width="480" height="2320" as="geometry" />
        </mxCell>
        <mxCell id="KVfynKzxWFTU4O8-inOF-36" value="" style="rounded=0;whiteSpace=wrap;html=1;fillColor=#d5e8d4;strokeColor=none;opacity=50;" vertex="1" parent="1">
          <mxGeometry x="-2840" y="-530" width="480" height="2330" as="geometry" />
        </mxCell>
        <mxCell id="KVfynKzxWFTU4O8-inOF-37" value="" style="rounded=0;whiteSpace=wrap;html=1;fillColor=#ffe6cc;strokeColor=none;opacity=50;" vertex="1" parent="1">
          <mxGeometry x="-2360" y="-520" width="480" height="2320" as="geometry" />
        </mxCell>
        <mxCell id="fmr0Tmu_XqEPMl78r0tC-117" value="AWS Producer" style="points=[[0,0],[0.25,0],[0.5,0],[0.75,0],[1,0],[1,0.25],[1,0.5],[1,0.75],[1,1],[0.75,1],[0.5,1],[0.25,1],[0,1],[0,0.75],[0,0.5],[0,0.25]];outlineConnect=0;gradientColor=none;html=1;whiteSpace=wrap;fontSize=15;fontStyle=1;container=0;pointerEvents=0;collapsible=0;recursiveResize=0;shape=mxgraph.aws4.group;grIcon=mxgraph.aws4.group_account;strokeColor=#CD2264;fillColor=default;verticalAlign=top;align=left;spacingLeft=30;fontColor=#CD2264;dashed=0;" parent="1" vertex="1">
          <mxGeometry x="-320" y="-70" width="440" height="1290" as="geometry" />
        </mxCell>
        <mxCell id="KVfynKzxWFTU4O8-inOF-42" value="PRODUCER" style="text;html=1;align=center;verticalAlign=top;whiteSpace=wrap;rounded=0;fontStyle=1;fontSize=20;fontColor=#CD2264;strokeColor=#CD2264;strokeWidth=2;" vertex="1" parent="1">
          <mxGeometry x="-1880" y="-480" width="480" height="2280" as="geometry" />
        </mxCell>
        <mxCell id="KVfynKzxWFTU4O8-inOF-40" value="CONSUMER" style="text;html=1;align=center;verticalAlign=top;whiteSpace=wrap;rounded=0;fontStyle=1;fontSize=20;fontColor=#CD2264;strokeColor=#CD2264;strokeWidth=2;" vertex="1" parent="1">
          <mxGeometry x="-2840" y="-480" width="960" height="2280" as="geometry" />
        </mxCell>
        <mxCell id="KVfynKzxWFTU4O8-inOF-38" value="" style="rounded=0;whiteSpace=wrap;html=1;fillColor=#eeeeee;strokeColor=none;arcSize=10;opacity=80;" vertex="1" parent="1">
          <mxGeometry x="-3000" y="-480" width="160" height="2280" as="geometry" />
        </mxCell>
        <mxCell id="fmr0Tmu_XqEPMl78r0tC-71" value="AWS Consumer" style="points=[[0,0],[0.25,0],[0.5,0],[0.75,0],[1,0],[1,0.25],[1,0.5],[1,0.75],[1,1],[0.75,1],[0.5,1],[0.25,1],[0,1],[0,0.75],[0,0.5],[0,0.25]];outlineConnect=0;gradientColor=none;html=1;whiteSpace=wrap;fontSize=15;fontStyle=1;container=1;pointerEvents=0;collapsible=0;recursiveResize=0;shape=mxgraph.aws4.group;grIcon=mxgraph.aws4.group_account;strokeColor=#CD2264;fillColor=default;verticalAlign=top;align=left;spacingLeft=30;fontColor=#CD2264;dashed=0;" parent="1" vertex="1">
          <mxGeometry x="240" y="-70" width="440" height="1290" as="geometry" />
        </mxCell>
        <mxCell id="fmr0Tmu_XqEPMl78r0tC-105" style="edgeStyle=orthogonalEdgeStyle;rounded=0;orthogonalLoop=1;jettySize=auto;html=1;" parent="1" source="fmr0Tmu_XqEPMl78r0tC-3" target="fmr0Tmu_XqEPMl78r0tC-104" edge="1">
          <mxGeometry relative="1" as="geometry">
            <Array as="points">
              <mxPoint x="360" y="180" />
              <mxPoint y="180" />
            </Array>
          </mxGeometry>
        </mxCell>
        <mxCell id="fmr0Tmu_XqEPMl78r0tC-3" value="Existe a tabela&lt;div style=&quot;font-size: 11px;&quot;&gt;de publico?&amp;nbsp;&lt;/div&gt;" style="rhombus;whiteSpace=wrap;html=1;fontSize=11;strokeWidth=1;" parent="1" vertex="1">
          <mxGeometry x="310" y="10" width="100" height="90" as="geometry" />
        </mxCell>
        <mxCell id="fmr0Tmu_XqEPMl78r0tC-56" style="edgeStyle=orthogonalEdgeStyle;rounded=0;orthogonalLoop=1;jettySize=auto;html=1;strokeWidth=1;" parent="1" source="fmr0Tmu_XqEPMl78r0tC-11" target="fmr0Tmu_XqEPMl78r0tC-55" edge="1">
          <mxGeometry relative="1" as="geometry" />
        </mxCell>
        <mxCell id="KVfynKzxWFTU4O8-inOF-64" style="edgeStyle=orthogonalEdgeStyle;rounded=0;orthogonalLoop=1;jettySize=auto;html=1;entryX=0.5;entryY=0;entryDx=0;entryDy=0;" edge="1" parent="1" source="fmr0Tmu_XqEPMl78r0tC-11" target="KVfynKzxWFTU4O8-inOF-63">
          <mxGeometry relative="1" as="geometry" />
        </mxCell>
        <mxCell id="fmr0Tmu_XqEPMl78r0tC-11" value="Os book&lt;div&gt;existentes atendem?&lt;/div&gt;" style="rhombus;whiteSpace=wrap;html=1;fontSize=11;strokeWidth=1;" parent="1" vertex="1">
          <mxGeometry x="310" y="200" width="100" height="90" as="geometry" />
        </mxCell>
        <mxCell id="fmr0Tmu_XqEPMl78r0tC-23" style="edgeStyle=orthogonalEdgeStyle;rounded=0;orthogonalLoop=1;jettySize=auto;html=1;strokeWidth=1;" parent="1" source="KVfynKzxWFTU4O8-inOF-1" target="fmr0Tmu_XqEPMl78r0tC-3" edge="1">
          <mxGeometry relative="1" as="geometry">
            <Array as="points">
              <mxPoint x="180" y="-30" />
              <mxPoint x="360" y="-30" />
            </Array>
          </mxGeometry>
        </mxCell>
        <mxCell id="fmr0Tmu_XqEPMl78r0tC-22" value="Novo modelo" style="strokeWidth=2;html=1;shape=mxgraph.flowchart.terminator;whiteSpace=wrap;fontSize=15;" parent="1" vertex="1">
          <mxGeometry x="120" y="-300" width="120" height="60" as="geometry" />
        </mxCell>
        <mxCell id="fmr0Tmu_XqEPMl78r0tC-85" style="edgeStyle=orthogonalEdgeStyle;rounded=0;orthogonalLoop=1;jettySize=auto;html=1;" parent="1" source="fmr0Tmu_XqEPMl78r0tC-28" edge="1">
          <mxGeometry relative="1" as="geometry">
            <mxPoint x="360" y="130" as="targetPoint" />
            <Array as="points">
              <mxPoint x="580" y="130" />
            </Array>
          </mxGeometry>
        </mxCell>
        <mxCell id="fmr0Tmu_XqEPMl78r0tC-28" value="Criar publico" style="strokeWidth=1;html=1;shape=mxgraph.flowchart.terminator;whiteSpace=wrap;fillColor=#d5e8d4;strokeColor=#82b366;" parent="1" vertex="1">
          <mxGeometry x="530" y="35" width="100" height="40" as="geometry" />
        </mxCell>
        <mxCell id="fmr0Tmu_XqEPMl78r0tC-29" style="edgeStyle=orthogonalEdgeStyle;rounded=0;orthogonalLoop=1;jettySize=auto;html=1;entryX=0;entryY=0.5;entryDx=0;entryDy=0;entryPerimeter=0;" parent="1" source="fmr0Tmu_XqEPMl78r0tC-3" target="fmr0Tmu_XqEPMl78r0tC-28" edge="1">
          <mxGeometry relative="1" as="geometry" />
        </mxCell>
        <mxCell id="fmr0Tmu_XqEPMl78r0tC-31" value="Sim" style="text;html=1;align=center;verticalAlign=middle;whiteSpace=wrap;rounded=0;" parent="1" vertex="1">
          <mxGeometry x="380" y="90" width="40" height="30" as="geometry" />
        </mxCell>
        <mxCell id="fmr0Tmu_XqEPMl78r0tC-32" value="Não" style="text;html=1;align=center;verticalAlign=middle;whiteSpace=wrap;rounded=0;" parent="1" vertex="1">
          <mxGeometry x="400" y="30" width="40" height="30" as="geometry" />
        </mxCell>
        <mxCell id="KVfynKzxWFTU4O8-inOF-69" style="edgeStyle=orthogonalEdgeStyle;rounded=0;orthogonalLoop=1;jettySize=auto;html=1;" edge="1" parent="1" source="fmr0Tmu_XqEPMl78r0tC-34" target="fmr0Tmu_XqEPMl78r0tC-55">
          <mxGeometry relative="1" as="geometry">
            <Array as="points">
              <mxPoint x="490" y="500" />
              <mxPoint x="360" y="500" />
            </Array>
          </mxGeometry>
        </mxCell>
        <mxCell id="fmr0Tmu_XqEPMl78r0tC-34" value="Criar books" style="strokeWidth=1;html=1;shape=mxgraph.flowchart.terminator;whiteSpace=wrap;fillColor=#d5e8d4;strokeColor=#82b366;" parent="1" vertex="1">
          <mxGeometry x="440" y="440" width="100" height="40" as="geometry" />
        </mxCell>
        <mxCell id="fmr0Tmu_XqEPMl78r0tC-37" value="Não" style="text;html=1;align=center;verticalAlign=middle;whiteSpace=wrap;rounded=0;" parent="1" vertex="1">
          <mxGeometry x="400" y="210" width="40" height="30" as="geometry" />
        </mxCell>
        <mxCell id="fmr0Tmu_XqEPMl78r0tC-38" value="Sim" style="text;html=1;align=center;verticalAlign=middle;whiteSpace=wrap;rounded=0;" parent="1" vertex="1">
          <mxGeometry x="360" y="280" width="40" height="30" as="geometry" />
        </mxCell>
        <mxCell id="fmr0Tmu_XqEPMl78r0tC-44" style="edgeStyle=orthogonalEdgeStyle;rounded=0;orthogonalLoop=1;jettySize=auto;html=1;entryX=0.5;entryY=0;entryDx=0;entryDy=0;fillColor=#dae8fc;strokeColor=#000000;" parent="1" source="fmr0Tmu_XqEPMl78r0tC-45" target="fmr0Tmu_XqEPMl78r0tC-49" edge="1">
          <mxGeometry relative="1" as="geometry" />
        </mxCell>
        <mxCell id="fmr0Tmu_XqEPMl78r0tC-45" value="Desenvolver book" style="rounded=0;whiteSpace=wrap;html=1;fillColor=#d5e8d4;strokeColor=#82b366;" parent="1" vertex="1">
          <mxGeometry x="1585" y="150" width="120" height="40" as="geometry" />
        </mxCell>
        <mxCell id="fmr0Tmu_XqEPMl78r0tC-46" style="edgeStyle=orthogonalEdgeStyle;rounded=0;orthogonalLoop=1;jettySize=auto;html=1;entryX=0.5;entryY=0;entryDx=0;entryDy=0;fillColor=#dae8fc;strokeColor=#000000;" parent="1" source="fmr0Tmu_XqEPMl78r0tC-47" target="fmr0Tmu_XqEPMl78r0tC-52" edge="1">
          <mxGeometry relative="1" as="geometry" />
        </mxCell>
        <mxCell id="fmr0Tmu_XqEPMl78r0tC-47" value="Realizar carga histórica do book" style="rounded=0;whiteSpace=wrap;html=1;fillColor=#d5e8d4;strokeColor=#82b366;" parent="1" vertex="1">
          <mxGeometry x="1585" y="290" width="120" height="40" as="geometry" />
        </mxCell>
        <mxCell id="fmr0Tmu_XqEPMl78r0tC-48" style="edgeStyle=orthogonalEdgeStyle;rounded=0;orthogonalLoop=1;jettySize=auto;html=1;fillColor=#dae8fc;strokeColor=#000000;" parent="1" source="fmr0Tmu_XqEPMl78r0tC-49" target="fmr0Tmu_XqEPMl78r0tC-47" edge="1">
          <mxGeometry relative="1" as="geometry" />
        </mxCell>
        <mxCell id="fmr0Tmu_XqEPMl78r0tC-49" value="Criar job de carga do book" style="rounded=0;whiteSpace=wrap;html=1;fillColor=#d5e8d4;strokeColor=#82b366;" parent="1" vertex="1">
          <mxGeometry x="1585" y="220" width="120" height="40" as="geometry" />
        </mxCell>
        <mxCell id="fmr0Tmu_XqEPMl78r0tC-50" style="edgeStyle=orthogonalEdgeStyle;rounded=0;orthogonalLoop=1;jettySize=auto;html=1;fillColor=#dae8fc;strokeColor=#000000;" parent="1" source="fmr0Tmu_XqEPMl78r0tC-51" target="fmr0Tmu_XqEPMl78r0tC-45" edge="1">
          <mxGeometry relative="1" as="geometry" />
        </mxCell>
        <mxCell id="fmr0Tmu_XqEPMl78r0tC-51" value="Criar book" style="strokeWidth=1;html=1;shape=mxgraph.flowchart.terminator;whiteSpace=wrap;fillColor=#d5e8d4;strokeColor=#82b366;" parent="1" vertex="1">
          <mxGeometry x="1595" y="80" width="100" height="40" as="geometry" />
        </mxCell>
        <mxCell id="fmr0Tmu_XqEPMl78r0tC-52" value="Tenho todos os book necessários com carga histórica?" style="rhombus;whiteSpace=wrap;html=1;fontSize=10;fillColor=#d5e8d4;strokeColor=#82b366;" parent="1" vertex="1">
          <mxGeometry x="1580" y="360" width="130" height="120" as="geometry" />
        </mxCell>
        <mxCell id="fmr0Tmu_XqEPMl78r0tC-53" style="edgeStyle=orthogonalEdgeStyle;rounded=0;orthogonalLoop=1;jettySize=auto;html=1;entryX=1;entryY=0.5;entryDx=0;entryDy=0;entryPerimeter=0;" parent="1" source="fmr0Tmu_XqEPMl78r0tC-52" target="fmr0Tmu_XqEPMl78r0tC-51" edge="1">
          <mxGeometry relative="1" as="geometry">
            <Array as="points">
              <mxPoint x="1785" y="420" />
              <mxPoint x="1785" y="100" />
            </Array>
          </mxGeometry>
        </mxCell>
        <mxCell id="fmr0Tmu_XqEPMl78r0tC-94" style="edgeStyle=orthogonalEdgeStyle;rounded=0;orthogonalLoop=1;jettySize=auto;html=1;entryX=0.5;entryY=0;entryDx=0;entryDy=0;strokeWidth=1;" parent="1" source="fmr0Tmu_XqEPMl78r0tC-55" target="fmr0Tmu_XqEPMl78r0tC-99" edge="1">
          <mxGeometry relative="1" as="geometry">
            <mxPoint x="50" y="1270.0526315789475" as="targetPoint" />
            <Array as="points">
              <mxPoint x="360" y="670" />
              <mxPoint y="670" />
            </Array>
          </mxGeometry>
        </mxCell>
        <mxCell id="fmr0Tmu_XqEPMl78r0tC-60" value="Temos as bases de origem necessárias?" style="rounded=0;whiteSpace=wrap;html=1;fillColor=#d5e8d4;strokeColor=#82b366;" parent="1" vertex="1">
          <mxGeometry x="1850" y="200" width="120" height="40" as="geometry" />
        </mxCell>
        <mxCell id="fmr0Tmu_XqEPMl78r0tC-80" value="Criar a tabela de publico" style="rounded=0;whiteSpace=wrap;html=1;fillColor=#d5e8d4;strokeColor=#82b366;" parent="1" vertex="1">
          <mxGeometry x="1360" y="265" width="120" height="40" as="geometry" />
        </mxCell>
        <mxCell id="fmr0Tmu_XqEPMl78r0tC-81" style="edgeStyle=orthogonalEdgeStyle;rounded=0;orthogonalLoop=1;jettySize=auto;html=1;fillColor=#fff2cc;strokeColor=#000000;" parent="1" source="fmr0Tmu_XqEPMl78r0tC-82" target="fmr0Tmu_XqEPMl78r0tC-80" edge="1">
          <mxGeometry relative="1" as="geometry" />
        </mxCell>
        <mxCell id="fmr0Tmu_XqEPMl78r0tC-82" value="Definir o publico" style="rounded=0;whiteSpace=wrap;html=1;fillColor=#d5e8d4;strokeColor=#82b366;" parent="1" vertex="1">
          <mxGeometry x="1360" y="195" width="120" height="40" as="geometry" />
        </mxCell>
        <mxCell id="fmr0Tmu_XqEPMl78r0tC-83" style="edgeStyle=orthogonalEdgeStyle;rounded=0;orthogonalLoop=1;jettySize=auto;html=1;fillColor=#fff2cc;strokeColor=#000000;" parent="1" source="fmr0Tmu_XqEPMl78r0tC-84" target="fmr0Tmu_XqEPMl78r0tC-82" edge="1">
          <mxGeometry relative="1" as="geometry" />
        </mxCell>
        <mxCell id="fmr0Tmu_XqEPMl78r0tC-84" value="Criar publico" style="strokeWidth=1;html=1;shape=mxgraph.flowchart.terminator;whiteSpace=wrap;fillColor=#d5e8d4;strokeColor=#82b366;" parent="1" vertex="1">
          <mxGeometry x="1370" y="125" width="100" height="40" as="geometry" />
        </mxCell>
        <mxCell id="fmr0Tmu_XqEPMl78r0tC-86" value="Criar job do Glue&lt;div&gt;do book&lt;/div&gt;" style="strokeWidth=1;html=1;shape=mxgraph.flowchart.terminator;whiteSpace=wrap;fillColor=#d5e8d4;strokeColor=#82b366;" parent="1" vertex="1">
          <mxGeometry x="2040" y="120" width="120" height="40" as="geometry" />
        </mxCell>
        <mxCell id="fmr0Tmu_XqEPMl78r0tC-97" value="Negocio" style="rounded=1;whiteSpace=wrap;html=1;fontSize=20;fillColor=#d5e8d4;strokeColor=#82b366;" parent="1" vertex="1">
          <mxGeometry x="200" y="-400" width="520" height="40" as="geometry" />
        </mxCell>
        <mxCell id="fmr0Tmu_XqEPMl78r0tC-98" value="Tecnologia" style="rounded=1;whiteSpace=wrap;html=1;fontSize=20;fillColor=#ffe6cc;strokeColor=#d79b00;" parent="1" vertex="1">
          <mxGeometry x="-400" y="-400" width="560" height="40" as="geometry" />
        </mxCell>
        <mxCell id="fmr0Tmu_XqEPMl78r0tC-102" style="edgeStyle=orthogonalEdgeStyle;rounded=0;orthogonalLoop=1;jettySize=auto;html=1;" parent="1" source="fmr0Tmu_XqEPMl78r0tC-99" target="fmr0Tmu_XqEPMl78r0tC-101" edge="1">
          <mxGeometry relative="1" as="geometry" />
        </mxCell>
        <mxCell id="fmr0Tmu_XqEPMl78r0tC-99" value="Os book&amp;nbsp;&lt;div&gt;existem na producer?&lt;/div&gt;" style="rhombus;whiteSpace=wrap;html=1;fontSize=11;strokeWidth=1;" parent="1" vertex="1">
          <mxGeometry x="-50" y="920" width="100" height="90" as="geometry" />
        </mxCell>
        <mxCell id="fmr0Tmu_XqEPMl78r0tC-101" value="Criar tabela na Producer" style="strokeWidth=1;html=1;shape=mxgraph.flowchart.terminator;whiteSpace=wrap;fillColor=#ffe6cc;strokeColor=#d79b00;" parent="1" vertex="1">
          <mxGeometry x="-260" y="945" width="100" height="40" as="geometry" />
        </mxCell>
        <mxCell id="fmr0Tmu_XqEPMl78r0tC-110" style="edgeStyle=orthogonalEdgeStyle;rounded=0;orthogonalLoop=1;jettySize=auto;html=1;" parent="1" source="fmr0Tmu_XqEPMl78r0tC-104" target="fmr0Tmu_XqEPMl78r0tC-108" edge="1">
          <mxGeometry relative="1" as="geometry" />
        </mxCell>
        <mxCell id="fmr0Tmu_XqEPMl78r0tC-111" style="edgeStyle=orthogonalEdgeStyle;rounded=0;orthogonalLoop=1;jettySize=auto;html=1;" parent="1" source="fmr0Tmu_XqEPMl78r0tC-104" target="fmr0Tmu_XqEPMl78r0tC-99" edge="1">
          <mxGeometry relative="1" as="geometry" />
        </mxCell>
        <mxCell id="fmr0Tmu_XqEPMl78r0tC-104" value="Tabela de&amp;nbsp;&lt;div&gt;publico existe na&amp;nbsp;&lt;div&gt;Producer?&lt;/div&gt;&lt;/div&gt;" style="rhombus;whiteSpace=wrap;html=1;fontSize=11;strokeWidth=1;" parent="1" vertex="1">
          <mxGeometry x="-50" y="520" width="100" height="90" as="geometry" />
        </mxCell>
        <mxCell id="fmr0Tmu_XqEPMl78r0tC-108" value="Criar tabela na Producer" style="strokeWidth=1;html=1;shape=mxgraph.flowchart.terminator;whiteSpace=wrap;fillColor=#ffe6cc;strokeColor=#d79b00;" parent="1" vertex="1">
          <mxGeometry x="-260" y="545" width="100" height="40" as="geometry" />
        </mxCell>
        <mxCell id="fmr0Tmu_XqEPMl78r0tC-109" value="Criar tabela na Producer" style="strokeWidth=1;html=1;shape=mxgraph.flowchart.terminator;whiteSpace=wrap;fillColor=#ffe6cc;strokeColor=#d79b00;" parent="1" vertex="1">
          <mxGeometry x="-1240" y="-10" width="100" height="40" as="geometry" />
        </mxCell>
        <mxCell id="fmr0Tmu_XqEPMl78r0tC-120" value="Desenvolver modelo" style="strokeWidth=1;html=1;shape=mxgraph.flowchart.terminator;whiteSpace=wrap;fillColor=#d5e8d4;strokeColor=#82b366;" parent="1" vertex="1">
          <mxGeometry x="1170" y="610" width="120" height="40" as="geometry" />
        </mxCell>
        <mxCell id="fmr0Tmu_XqEPMl78r0tC-91" value="Não" style="text;html=1;align=center;verticalAlign=middle;whiteSpace=wrap;rounded=0;" parent="1" vertex="1">
          <mxGeometry x="-80" y="935" width="40" height="30" as="geometry" />
        </mxCell>
        <mxCell id="fmr0Tmu_XqEPMl78r0tC-92" value="Sim" style="text;html=1;align=center;verticalAlign=middle;whiteSpace=wrap;rounded=0;" parent="1" vertex="1">
          <mxGeometry x="-40" y="1000" width="40" height="30" as="geometry" />
        </mxCell>
        <mxCell id="fmr0Tmu_XqEPMl78r0tC-106" value="Não" style="text;html=1;align=center;verticalAlign=middle;whiteSpace=wrap;rounded=0;" parent="1" vertex="1">
          <mxGeometry x="-80" y="530" width="40" height="30" as="geometry" />
        </mxCell>
        <mxCell id="fmr0Tmu_XqEPMl78r0tC-107" value="Sim" style="text;html=1;align=center;verticalAlign=middle;whiteSpace=wrap;rounded=0;" parent="1" vertex="1">
          <mxGeometry x="-40" y="600" width="40" height="30" as="geometry" />
        </mxCell>
        <mxCell id="KVfynKzxWFTU4O8-inOF-2" value="" style="edgeStyle=orthogonalEdgeStyle;rounded=0;orthogonalLoop=1;jettySize=auto;html=1;strokeWidth=1;" edge="1" parent="1" source="fmr0Tmu_XqEPMl78r0tC-22" target="KVfynKzxWFTU4O8-inOF-1">
          <mxGeometry relative="1" as="geometry">
            <Array as="points" />
            <mxPoint x="180" y="-220" as="sourcePoint" />
            <mxPoint x="360" y="90" as="targetPoint" />
          </mxGeometry>
        </mxCell>
        <mxCell id="KVfynKzxWFTU4O8-inOF-1" value="Levantamento de requisitos / refinamento" style="rounded=0;whiteSpace=wrap;html=1;strokeWidth=1;" vertex="1" parent="1">
          <mxGeometry x="120" y="-180" width="120" height="60" as="geometry" />
        </mxCell>
        <mxCell id="KVfynKzxWFTU4O8-inOF-3" value="Etapa 1" style="text;html=1;align=center;verticalAlign=middle;whiteSpace=wrap;rounded=1;fontStyle=1;fontSize=20;strokeColor=default;fillColor=#FFFFFF;" vertex="1" parent="1">
          <mxGeometry x="-3000" y="-400" width="160" height="40" as="geometry" />
        </mxCell>
        <mxCell id="KVfynKzxWFTU4O8-inOF-6" value="&lt;div&gt;&lt;b&gt;Fases:&lt;/b&gt;&lt;/div&gt;&lt;div&gt;&lt;b&gt;&lt;br&gt;&lt;/b&gt;&lt;/div&gt;* Entendimento do negocio&lt;div&gt;&lt;span style=&quot;white-space: pre;&quot;&gt;&#x9;&lt;/span&gt;- conversas com especialistas&lt;/div&gt;&lt;div&gt;&lt;span style=&quot;white-space: pre;&quot;&gt;&#x9;&lt;/span&gt;- pesquisa de mercado&lt;/div&gt;&lt;div&gt;&lt;span style=&quot;white-space: pre;&quot;&gt;&#x9;&lt;/span&gt;- estudo e analise do domínio&lt;/div&gt;&lt;div&gt;&lt;br&gt;&lt;div&gt;* Entendimento do problema&lt;/div&gt;&lt;div&gt;&lt;span style=&quot;white-space: pre;&quot;&gt;&#x9;&lt;/span&gt;- conversas com stackholders, clientes e usuário final&lt;br&gt;&lt;/div&gt;&lt;div&gt;&lt;span style=&quot;white-space: pre;&quot;&gt;&#x9;&lt;/span&gt;- levantamento das necessidades dos stackholders&lt;br&gt;&lt;/div&gt;&lt;div&gt;&lt;span style=&quot;white-space: pre;&quot;&gt;&#x9;&lt;/span&gt;- formulação do problema&lt;br&gt;&lt;/div&gt;&lt;div&gt;&lt;br&gt;&lt;/div&gt;&lt;div&gt;* Enquadramento da solução em machine learning&lt;/div&gt;&lt;div&gt;&lt;span style=&quot;white-space: pre;&quot;&gt;&#x9;&lt;/span&gt;- avaliar complexidade&lt;br&gt;&lt;/div&gt;&lt;div&gt;&lt;span style=&quot;white-space: pre;&quot;&gt;&#x9;&lt;/span&gt;&lt;span style=&quot;background-color: initial;&quot;&gt;- tradução do problema de negocio em machine learning&lt;/span&gt;&lt;br&gt;&lt;/div&gt;&lt;div&gt;&lt;span style=&quot;white-space: pre;&quot;&gt;&#x9;&lt;/span&gt;- formulação de arquitetura&lt;span style=&quot;background-color: initial; white-space: pre;&quot;&gt;&#x9;&lt;/span&gt;&lt;/div&gt;&lt;div&gt;&lt;br&gt;&lt;/div&gt;&lt;div&gt;* Compreensão do dados de entrada&amp;nbsp;&lt;/div&gt;&lt;div&gt;&lt;span style=&quot;white-space: pre;&quot;&gt;&#x9;&lt;/span&gt;- avaliar possíveis dados de utilização&lt;br&gt;&lt;/div&gt;&lt;div&gt;&lt;span style=&quot;white-space: pre;&quot;&gt;&#x9;&lt;/span&gt;- avaliar disponibilidade dos dados&lt;br&gt;&lt;/div&gt;&lt;div&gt;&lt;span style=&quot;white-space: pre;&quot;&gt;&#x9;&lt;/span&gt;- avaliar viabilidade dos dados&lt;br&gt;&lt;/div&gt;&lt;div&gt;&lt;br&gt;&lt;/div&gt;&lt;div&gt;* Levantamento do publico&lt;/div&gt;&lt;div&gt;&lt;br&gt;&lt;/div&gt;&lt;div&gt;&lt;b&gt;Output:&lt;/b&gt;&lt;/div&gt;&lt;div&gt;- definição do objetivo&lt;/div&gt;&lt;div&gt;- definição do problema de forma especifica e mensurável&lt;/div&gt;&lt;div&gt;- proposta de modelos e tipos de modelos de ml&lt;/div&gt;&lt;div&gt;- definição de métricas de avaliação e métricas de sucesso&lt;/div&gt;&lt;div&gt;- definição do publico de treinamento&lt;/div&gt;&lt;/div&gt;" style="text;html=1;align=left;verticalAlign=top;whiteSpace=wrap;rounded=0;fontSize=12;horizontal=1;" vertex="1" parent="1">
          <mxGeometry x="-2840" y="-360" width="480" height="440" as="geometry" />
        </mxCell>
        <mxCell id="KVfynKzxWFTU4O8-inOF-9" value="Etapa 2" style="text;html=1;align=center;verticalAlign=middle;whiteSpace=wrap;rounded=1;fontStyle=1;fontSize=20;strokeColor=default;fillColor=default;" vertex="1" parent="1">
          <mxGeometry x="-3000" y="100" width="160" height="40" as="geometry" />
        </mxCell>
        <mxCell id="KVfynKzxWFTU4O8-inOF-10" value="&lt;div&gt;&lt;b&gt;Fases:&lt;/b&gt;&lt;/div&gt;&lt;div&gt;&lt;b&gt;&lt;br&gt;&lt;/b&gt;&lt;/div&gt;* Extração dos dados de origem&lt;div&gt;&lt;span style=&quot;white-space: pre;&quot;&gt;&#x9;&lt;/span&gt;- validar dados necessários&lt;/div&gt;&lt;div&gt;&lt;div&gt;&lt;span style=&quot;white-space: pre;&quot;&gt;&#x9;&lt;/span&gt;- verificar disponibilidade dos dados&lt;/div&gt;&lt;div&gt;&lt;span style=&quot;white-space: pre;&quot;&gt;&#x9;&lt;/span&gt;&lt;span style=&quot;background-color: initial;&quot;&gt;- garantir consentimento e permissões de acesso aos dados&lt;/span&gt;&lt;br&gt;&lt;/div&gt;&lt;div&gt;&lt;br&gt;&lt;/div&gt;&lt;div&gt;* Exploração dos dados&lt;/div&gt;&lt;div&gt;&lt;span style=&quot;white-space: pre;&quot;&gt;&#x9;&lt;/span&gt;- verificar integridade e qualidade dos dados&lt;/div&gt;&lt;div&gt;&lt;span style=&quot;white-space: pre;&quot;&gt;&#x9;&lt;/span&gt;- verificar relevância dos dados&lt;br&gt;&lt;/div&gt;&lt;div&gt;&lt;br&gt;&lt;/div&gt;&lt;div&gt;* Entendimento dos dados&lt;/div&gt;&lt;div&gt;&lt;span style=&quot;white-space: pre;&quot;&gt;&#x9;&lt;/span&gt;- compreender as variáveis&lt;/div&gt;&lt;div&gt;&lt;span style=&quot;white-space: pre;&quot;&gt;&#x9;&lt;/span&gt;- conhecer o domínio dos dados&lt;br&gt;&lt;/div&gt;&lt;div&gt;&lt;div&gt;&lt;br&gt;&lt;/div&gt;&lt;div&gt;&lt;br&gt;&lt;/div&gt;&lt;div&gt;&lt;b&gt;Output:&lt;/b&gt;&lt;/div&gt;&lt;div&gt;- definição dos dados a serem utilizados&lt;/div&gt;&lt;div&gt;- entendimento das fontes de origem dos dados&lt;/div&gt;&lt;div&gt;- tabelas Sor necessárias&lt;/div&gt;&lt;div&gt;- tabelas Sot necessárias&lt;/div&gt;&lt;div&gt;&lt;br&gt;&lt;/div&gt;&lt;/div&gt;&lt;/div&gt;" style="text;html=1;align=left;verticalAlign=top;whiteSpace=wrap;rounded=0;fontSize=12;horizontal=1;" vertex="1" parent="1">
          <mxGeometry x="-2840" y="140" width="480" height="320" as="geometry" />
        </mxCell>
        <mxCell id="KVfynKzxWFTU4O8-inOF-12" value="Negocio" style="rounded=1;whiteSpace=wrap;html=1;fontSize=20;fillColor=#d5e8d4;strokeColor=#82b366;" vertex="1" parent="1">
          <mxGeometry x="-2840" y="-560" width="480" height="40" as="geometry" />
        </mxCell>
        <mxCell id="KVfynKzxWFTU4O8-inOF-13" value="Tecnologia" style="rounded=1;whiteSpace=wrap;html=1;fontSize=20;fillColor=#ffe6cc;strokeColor=#d79b00;" vertex="1" parent="1">
          <mxGeometry x="-2360" y="-560" width="960" height="40" as="geometry" />
        </mxCell>
        <mxCell id="KVfynKzxWFTU4O8-inOF-15" value="&lt;div&gt;&lt;b&gt;Fases:&lt;/b&gt;&lt;/div&gt;&lt;div&gt;&lt;br&gt;&lt;/div&gt;&lt;div&gt;* Apoio&lt;/div&gt;&lt;div&gt;&lt;span style=&quot;white-space: pre;&quot;&gt;&#x9;&lt;/span&gt;- sugestões técnicas&lt;br&gt;&lt;/div&gt;&lt;div&gt;&lt;span style=&quot;white-space: pre;&quot;&gt;&#x9;&lt;/span&gt;- apoio em busca por dados&lt;br&gt;&lt;/div&gt;&lt;div&gt;&lt;span style=&quot;white-space: pre;&quot;&gt;&#x9;&lt;/span&gt;- apoio na viabilidade do projeto&lt;br&gt;&lt;/div&gt;&lt;div&gt;&lt;br&gt;&lt;/div&gt;&lt;div&gt;* Sugestão de arquitetura&lt;/div&gt;&lt;div&gt;&lt;span style=&quot;white-space: pre;&quot;&gt;&#x9;&lt;/span&gt;- explorar e montar arquiteturas de implantação automática&lt;br&gt;&lt;/div&gt;&lt;div&gt;&lt;span style=&quot;white-space: pre;&quot;&gt;&#x9;&lt;/span&gt;- planejar os requisitos necessários&lt;br&gt;&lt;/div&gt;&lt;div&gt;&lt;br&gt;&lt;/div&gt;&lt;div&gt;&lt;div&gt;&lt;br&gt;&lt;/div&gt;&lt;div&gt;&lt;b&gt;Output:&lt;/b&gt;&lt;/div&gt;&lt;div&gt;- proposta de arquitetura&lt;/div&gt;&lt;/div&gt;" style="text;html=1;align=left;verticalAlign=top;whiteSpace=wrap;rounded=0;fontSize=12;horizontal=1;" vertex="1" parent="1">
          <mxGeometry x="-2360" y="-360" width="480" height="440" as="geometry" />
        </mxCell>
        <mxCell id="KVfynKzxWFTU4O8-inOF-16" value="&lt;div&gt;&lt;b&gt;Fases:&lt;/b&gt;&lt;/div&gt;&lt;div&gt;&lt;b&gt;&lt;br&gt;&lt;/b&gt;&lt;/div&gt;* Verificação das fontes dos dados&lt;div&gt;&lt;span style=&quot;white-space: pre;&quot;&gt;&#x9;&lt;/span&gt;- verificar disponibilidade dos dados&lt;/div&gt;&lt;div&gt;&lt;span style=&quot;white-space: pre;&quot;&gt;&#x9;&lt;/span&gt;- explorar meios de extração&lt;br&gt;&lt;/div&gt;&lt;div&gt;&lt;span style=&quot;white-space: pre;&quot;&gt;&#x9;&lt;/span&gt;- explorar outras opções de origem&lt;br&gt;&lt;/div&gt;&lt;div&gt;&lt;span style=&quot;white-space: pre;&quot;&gt;&#x9;&lt;/span&gt;- garantir permissões de acesso aos dados&lt;br&gt;&lt;/div&gt;&lt;div&gt;&lt;br&gt;&lt;/div&gt;&lt;div&gt;* Automação da extração&lt;/div&gt;&lt;div&gt;&lt;span style=&quot;white-space: pre;&quot;&gt;&#x9;&lt;/span&gt;- avaliar extração por outros times&lt;br&gt;&lt;/div&gt;&lt;div&gt;&lt;div&gt;&lt;span style=&quot;white-space: pre;&quot;&gt;&#x9;&lt;/span&gt;- discutir opções de extração automática&lt;br&gt;&lt;/div&gt;&lt;div&gt;&lt;br&gt;&lt;/div&gt;&lt;div&gt;&lt;b&gt;Output:&lt;/b&gt;&lt;/div&gt;&lt;div&gt;- definição da fonte de origem&lt;/div&gt;&lt;div&gt;- definição da modelagem logica&lt;/div&gt;&lt;div&gt;- definição do modo de extração (ferramentas, serviços)&lt;/div&gt;&lt;div&gt;- definição do schema das tabelas (nome da tabela, nome de colunas, etc)&lt;/div&gt;&lt;div&gt;- definição dos serviços de ETL&lt;/div&gt;&lt;div&gt;&lt;br&gt;&lt;/div&gt;&lt;/div&gt;" style="text;html=1;align=left;verticalAlign=top;whiteSpace=wrap;rounded=0;fontSize=12;horizontal=1;" vertex="1" parent="1">
          <mxGeometry x="-2360" y="140" width="480" height="320" as="geometry" />
        </mxCell>
        <mxCell id="KVfynKzxWFTU4O8-inOF-17" value="Etapa 3" style="text;html=1;align=center;verticalAlign=middle;whiteSpace=wrap;rounded=1;fontStyle=1;fontSize=20;fillColor=#FFFFFF;gradientColor=none;strokeColor=default;" vertex="1" parent="1">
          <mxGeometry x="-3000" y="460" width="160" height="40" as="geometry" />
        </mxCell>
        <mxCell id="KVfynKzxWFTU4O8-inOF-19" value="&lt;span style=&quot;font-size: 18px;&quot;&gt;Brainstorming / Levantamento de Requisitos&lt;/span&gt;" style="rounded=1;whiteSpace=wrap;html=1;fontSize=18;fontStyle=1" vertex="1" parent="1">
          <mxGeometry x="-2840" y="-400" width="960" height="40" as="geometry" />
        </mxCell>
        <mxCell id="KVfynKzxWFTU4O8-inOF-20" value="Coleta de Dados" style="rounded=1;whiteSpace=wrap;html=1;fontSize=18;fontStyle=1" vertex="1" parent="1">
          <mxGeometry x="-2840" y="100" width="960" height="40" as="geometry" />
        </mxCell>
        <mxCell id="KVfynKzxWFTU4O8-inOF-21" value="&lt;span style=&quot;font-size: 18px;&quot;&gt;Análise Exploratória&lt;/span&gt;" style="rounded=1;whiteSpace=wrap;html=1;fontSize=18;fontStyle=1" vertex="1" parent="1">
          <mxGeometry x="-2840" y="460" width="960" height="40" as="geometry" />
        </mxCell>
        <mxCell id="KVfynKzxWFTU4O8-inOF-22" value="&lt;div&gt;&lt;b&gt;Fases:&lt;/b&gt;&lt;/div&gt;&lt;div&gt;&lt;b&gt;&lt;br&gt;&lt;/b&gt;&lt;/div&gt;* Integração dos dados&lt;div&gt;&lt;span style=&quot;white-space: pre;&quot;&gt;&#x9;&lt;/span&gt;- agregar dados&lt;/div&gt;&lt;div&gt;&lt;div&gt;&lt;br&gt;&lt;/div&gt;&lt;div&gt;* Visualização e analise dos dados&lt;/div&gt;&lt;div&gt;&lt;span style=&quot;white-space: pre;&quot;&gt;&#x9;&lt;/span&gt;- explorar os dados&lt;br&gt;&lt;/div&gt;&lt;div&gt;&lt;span style=&quot;white-space: pre;&quot;&gt;&#x9;&lt;/span&gt;- analisar e visualizar os dados&lt;/div&gt;&lt;div&gt;&lt;br&gt;&lt;/div&gt;&lt;div&gt;&lt;div&gt;* Preparação dos dados&lt;/div&gt;&lt;div&gt;&lt;br&gt;&lt;/div&gt;&lt;div&gt;&lt;br&gt;&lt;/div&gt;&lt;div&gt;&lt;b&gt;Output:&lt;/b&gt;&lt;/div&gt;&lt;div&gt;- definição das variáveis&lt;/div&gt;&lt;div&gt;- definição das tabelas especializadas&lt;/div&gt;&lt;/div&gt;&lt;/div&gt;&lt;div&gt;- tabela Spec dos books&lt;/div&gt;" style="text;html=1;align=left;verticalAlign=top;whiteSpace=wrap;rounded=0;fontSize=12;horizontal=1;" vertex="1" parent="1">
          <mxGeometry x="-2840" y="500" width="480" height="260" as="geometry" />
        </mxCell>
        <mxCell id="KVfynKzxWFTU4O8-inOF-23" value="&lt;div&gt;&lt;b&gt;Fases:&lt;/b&gt;&lt;/div&gt;&lt;div&gt;&lt;br&gt;&lt;/div&gt;* Análise das tabelas&lt;div&gt;&lt;span style=&quot;white-space: pre;&quot;&gt;&#x9;&lt;/span&gt;- avaliar schema das tabelas&lt;/div&gt;&lt;div&gt;&lt;span style=&quot;white-space: pre;&quot;&gt;&#x9;&lt;/span&gt;- avaliar serviços de processamento&lt;br&gt;&lt;div&gt;&lt;br&gt;&lt;/div&gt;&lt;div&gt;* Apoio&lt;/div&gt;&lt;div&gt;&lt;span style=&quot;white-space: pre;&quot;&gt;&lt;span style=&quot;white-space: pre;&quot;&gt;&#x9;&lt;/span&gt;- otimização de performance de ETL&lt;/span&gt;&lt;/div&gt;&lt;div&gt;&lt;span style=&quot;white-space: pre;&quot;&gt;&lt;span style=&quot;white-space: pre;&quot;&gt;&#x9;&lt;/span&gt;&lt;/span&gt;&lt;span style=&quot;white-space: pre; background-color: initial;&quot;&gt;- criação e automação dos jobs do Glue&lt;/span&gt;&lt;/div&gt;&lt;div&gt;&lt;div&gt;&lt;div&gt;&lt;br&gt;&lt;/div&gt;&lt;div&gt;&lt;br&gt;&lt;/div&gt;&lt;div&gt;&lt;b&gt;Output:&lt;/b&gt;&lt;/div&gt;&lt;div&gt;- definição do schema das tabelas&amp;nbsp;&lt;span style=&quot;background-color: initial;&quot;&gt;&amp;nbsp;&lt;/span&gt;&lt;span style=&quot;background-color: initial;&quot;&gt;(nome da tabela, nome de colunas, etc)&lt;/span&gt;&lt;/div&gt;&lt;div&gt;- definição dos serviços de processamento&lt;/div&gt;&lt;/div&gt;&lt;/div&gt;&lt;/div&gt;" style="text;html=1;align=left;verticalAlign=top;whiteSpace=wrap;rounded=0;fontSize=12;horizontal=1;" vertex="1" parent="1">
          <mxGeometry x="-2360" y="500" width="480" height="260" as="geometry" />
        </mxCell>
        <mxCell id="KVfynKzxWFTU4O8-inOF-24" value="Etapa 4" style="text;html=1;align=center;verticalAlign=middle;whiteSpace=wrap;rounded=1;fontStyle=1;fontSize=20;strokeColor=default;fillColor=#FFFFFF;" vertex="1" parent="1">
          <mxGeometry x="-3000" y="760" width="160" height="40" as="geometry" />
        </mxCell>
        <mxCell id="KVfynKzxWFTU4O8-inOF-25" value="&lt;span style=&quot;font-size: 18px;&quot;&gt;Engenharia de Atributos&lt;/span&gt;" style="rounded=1;whiteSpace=wrap;html=1;fontSize=18;fontStyle=1" vertex="1" parent="1">
          <mxGeometry x="-2840" y="760" width="960" height="40" as="geometry" />
        </mxCell>
        <mxCell id="KVfynKzxWFTU4O8-inOF-26" value="&lt;div&gt;&lt;b&gt;Fases:&lt;/b&gt;&lt;/div&gt;&lt;div&gt;&lt;b&gt;&lt;br&gt;&lt;/b&gt;&lt;/div&gt;* Seleção de variáveis&lt;div&gt;&lt;span style=&quot;white-space: pre;&quot;&gt;&#x9;&lt;/span&gt;- avaliar boas variáveis&lt;br&gt;&lt;div&gt;&lt;span style=&quot;white-space: pre;&quot;&gt;&#x9;&lt;/span&gt;- selecionar variáveis relevantes&lt;/div&gt;&lt;div&gt;&lt;div&gt;&lt;br&gt;&lt;/div&gt;&lt;div&gt;* Tratamento de variáveis&lt;/div&gt;&lt;div&gt;&lt;span style=&quot;white-space: pre;&quot;&gt;&#x9;&lt;/span&gt;- explorar os dados&lt;/div&gt;&lt;div&gt;&lt;br&gt;&lt;/div&gt;&lt;div&gt;&lt;div&gt;* Criação de novos atributos&lt;/div&gt;&lt;div&gt;&lt;br&gt;&lt;/div&gt;&lt;div&gt;* Transformações de variáveis&lt;/div&gt;&lt;div&gt;&lt;br&gt;&lt;/div&gt;&lt;div&gt;&lt;b&gt;Output:&lt;/b&gt;&lt;/div&gt;&lt;div&gt;- definição das features de entrada do modelo&lt;/div&gt;&lt;div&gt;- tabela de features do modelo&lt;/div&gt;&lt;div&gt;- tabela de features preparadas do modelo&lt;/div&gt;&lt;div&gt;&lt;br&gt;&lt;/div&gt;&lt;/div&gt;&lt;/div&gt;&lt;/div&gt;" style="text;html=1;align=left;verticalAlign=top;whiteSpace=wrap;rounded=0;fontSize=12;horizontal=1;" vertex="1" parent="1">
          <mxGeometry x="-2840" y="800" width="480" height="280" as="geometry" />
        </mxCell>
        <mxCell id="KVfynKzxWFTU4O8-inOF-28" value="Etapa 5" style="text;html=1;align=center;verticalAlign=middle;whiteSpace=wrap;rounded=1;fontStyle=1;fontSize=20;strokeColor=default;fillColor=#FFFFFF;" vertex="1" parent="1">
          <mxGeometry x="-3000" y="1080" width="160" height="40" as="geometry" />
        </mxCell>
        <mxCell id="KVfynKzxWFTU4O8-inOF-29" value="&lt;span style=&quot;font-size: 18px;&quot;&gt;Treinamento e Avaliação do Modelo&lt;/span&gt;" style="rounded=1;whiteSpace=wrap;html=1;fontSize=18;fontStyle=1" vertex="1" parent="1">
          <mxGeometry x="-2840" y="1080" width="960" height="40" as="geometry" />
        </mxCell>
        <mxCell id="KVfynKzxWFTU4O8-inOF-30" value="&lt;div&gt;&lt;b&gt;Fases:&lt;/b&gt;&lt;/div&gt;&lt;div&gt;&lt;b&gt;&lt;br&gt;&lt;/b&gt;&lt;/div&gt;* Divisão dos dados&lt;div&gt;&lt;span style=&quot;white-space: pre;&quot;&gt;&#x9;&lt;/span&gt;- definir estrategia de divisão dos dados de treino, teste e validação&lt;/div&gt;&lt;div&gt;&lt;span style=&quot;white-space: pre;&quot;&gt;&#x9;&lt;/span&gt;- definir código do método de divisão dos dados&lt;br&gt;&lt;/div&gt;&lt;div&gt;&lt;br&gt;&lt;/div&gt;&lt;div&gt;&lt;div&gt;* Escolha do algoritmo&lt;/div&gt;&lt;div&gt;&lt;span style=&quot;white-space: pre;&quot;&gt;&#x9;&lt;/span&gt;- testar diferentes algoritmos&lt;/div&gt;&lt;div&gt;&lt;span style=&quot;white-space: pre;&quot;&gt;&#x9;&lt;/span&gt;- executar benchmarks&lt;br&gt;&lt;/div&gt;&lt;div&gt;&lt;br&gt;&lt;/div&gt;&lt;div&gt;&lt;div&gt;* Otimização de hiperparâmetros&lt;/div&gt;&lt;div&gt;&lt;span style=&quot;white-space: pre;&quot;&gt;&#x9;&lt;/span&gt;- testar técnicas e algoritmos de busca de&amp;nbsp;&lt;span style=&quot;background-color: initial;&quot;&gt;hiperparâmetros&lt;/span&gt;&lt;br&gt;&lt;/div&gt;&lt;div&gt;&lt;span style=&quot;white-space: pre;&quot;&gt;&#x9;&lt;/span&gt;- executar benchmarks&lt;br&gt;&lt;/div&gt;&lt;div&gt;&lt;br&gt;&lt;/div&gt;&lt;div&gt;* Avaliação do modelo&lt;/div&gt;&lt;div&gt;&lt;span style=&quot;white-space: pre;&quot;&gt;&#x9;&lt;/span&gt;- medir diferentes métricas de avaliação&lt;br&gt;&lt;/div&gt;&lt;div&gt;&lt;span style=&quot;white-space: pre;&quot;&gt;&#x9;&lt;/span&gt;- analisar resultados&lt;/div&gt;&lt;div&gt;&lt;br&gt;&lt;/div&gt;&lt;div&gt;&lt;b&gt;Output:&lt;/b&gt;&lt;/div&gt;&lt;div&gt;- modelo&amp;nbsp;&lt;/div&gt;&lt;div&gt;- registros das definições&lt;/div&gt;&lt;div&gt;&lt;br&gt;&lt;/div&gt;&lt;/div&gt;&lt;/div&gt;" style="text;html=1;align=left;verticalAlign=top;whiteSpace=wrap;rounded=0;fontSize=12;horizontal=1;" vertex="1" parent="1">
          <mxGeometry x="-2840" y="1120" width="480" height="320" as="geometry" />
        </mxCell>
        <mxCell id="KVfynKzxWFTU4O8-inOF-31" value="&lt;div&gt;&lt;b&gt;Fases:&lt;/b&gt;&lt;/div&gt;&lt;div&gt;&lt;b&gt;&lt;br&gt;&lt;/b&gt;&lt;/div&gt;* Apoio&lt;div&gt;&lt;span style=&quot;white-space: pre;&quot;&gt;&#x9;&lt;/span&gt;- otimização de performance&lt;/div&gt;&lt;div&gt;&lt;div&gt;&lt;br&gt;&lt;/div&gt;&lt;div&gt;&lt;br&gt;&lt;/div&gt;&lt;div&gt;&lt;div&gt;&lt;br&gt;&lt;/div&gt;&lt;div&gt;&lt;b&gt;Output:&lt;/b&gt;&lt;/div&gt;&lt;div&gt;&lt;br&gt;&lt;/div&gt;&lt;div&gt;&lt;br&gt;&lt;/div&gt;&lt;/div&gt;&lt;/div&gt;" style="text;html=1;align=left;verticalAlign=top;whiteSpace=wrap;rounded=0;fontSize=12;horizontal=1;" vertex="1" parent="1">
          <mxGeometry x="-2360" y="1120" width="480" height="360" as="geometry" />
        </mxCell>
        <mxCell id="KVfynKzxWFTU4O8-inOF-32" value="Etapa 6" style="text;html=1;align=center;verticalAlign=middle;whiteSpace=wrap;rounded=1;fontStyle=1;fontSize=20;strokeColor=default;fillColor=#FFFFFF;" vertex="1" parent="1">
          <mxGeometry x="-3000" y="1480" width="160" height="40" as="geometry" />
        </mxCell>
        <mxCell id="KVfynKzxWFTU4O8-inOF-33" value="&lt;span style=&quot;font-size: 18px;&quot;&gt;Deploy do Modelo&lt;/span&gt;" style="rounded=1;whiteSpace=wrap;html=1;fontSize=18;fontStyle=1" vertex="1" parent="1">
          <mxGeometry x="-2840" y="1480" width="960" height="40" as="geometry" />
        </mxCell>
        <mxCell id="KVfynKzxWFTU4O8-inOF-34" value="&lt;div&gt;&lt;b&gt;Fases:&lt;/b&gt;&lt;/div&gt;&lt;div&gt;&lt;b&gt;&lt;br&gt;&lt;/b&gt;&lt;/div&gt;* Documentação&amp;nbsp;do modelo&lt;div&gt;&lt;span style=&quot;white-space: pre;&quot;&gt;&#x9;&lt;/span&gt;- criar documentação&lt;/div&gt;&lt;div&gt;&lt;span style=&quot;white-space: pre;&quot;&gt;&#x9;&lt;/span&gt;- criar apresentação&lt;br&gt;&lt;div&gt;&lt;br&gt;&lt;/div&gt;&lt;div&gt;* Apresentação do modelo&lt;div&gt;&lt;span style=&quot;white-space: pre;&quot;&gt;&#x9;&lt;/span&gt;- realizar apresentação do modelo para os stackholers&amp;nbsp;&lt;/div&gt;&lt;div&gt;&lt;span style=&quot;white-space: pre;&quot;&gt;&#x9;&lt;/span&gt;-&amp;nbsp;validar as metas definidas no inicio do projeto com stackholers&amp;nbsp;o modelo&lt;br&gt;&lt;div&gt;&lt;br&gt;&lt;/div&gt;&lt;div&gt;* Validação do modelo&lt;div&gt;&lt;span style=&quot;white-space: pre;&quot;&gt;&#x9;&lt;/span&gt;- preparar&amp;nbsp; requisitos requeridos pela auditoria&lt;/div&gt;&lt;div&gt;&lt;span style=&quot;white-space: pre;&quot;&gt;&#x9;&lt;/span&gt;- validar modelo com auditoria&lt;br&gt;&lt;/div&gt;&lt;div&gt;&lt;div&gt;&lt;br&gt;&lt;/div&gt;&lt;div&gt;&lt;br&gt;&lt;/div&gt;&lt;div&gt;&lt;div&gt;&lt;b&gt;Output:&lt;/b&gt;&lt;/div&gt;&lt;div&gt;- aprovação do modelo pela auditoria&lt;/div&gt;&lt;div&gt;&lt;br&gt;&lt;/div&gt;&lt;/div&gt;&lt;/div&gt;&lt;/div&gt;&lt;/div&gt;&lt;/div&gt;&lt;/div&gt;" style="text;html=1;align=left;verticalAlign=top;whiteSpace=wrap;rounded=0;fontSize=12;horizontal=1;" vertex="1" parent="1">
          <mxGeometry x="-2840" y="1520" width="480" height="270" as="geometry" />
        </mxCell>
        <mxCell id="KVfynKzxWFTU4O8-inOF-43" value="&lt;span style=&quot;font-size: 18px;&quot;&gt;Brainstorming / Levantamento de Requisitos&lt;/span&gt;" style="rounded=1;whiteSpace=wrap;html=1;fontSize=18;fontStyle=1" vertex="1" parent="1">
          <mxGeometry x="-1880" y="100" width="480" height="40" as="geometry" />
        </mxCell>
        <mxCell id="KVfynKzxWFTU4O8-inOF-44" value="Implantação das tabelas" style="rounded=1;whiteSpace=wrap;html=1;fontSize=18;fontStyle=1" vertex="1" parent="1">
          <mxGeometry x="-1880" y="460" width="480" height="40" as="geometry" />
        </mxCell>
        <mxCell id="KVfynKzxWFTU4O8-inOF-48" value="&lt;span style=&quot;font-size: 18px;&quot;&gt;Implantação do Modelo&lt;/span&gt;" style="rounded=1;whiteSpace=wrap;html=1;fontSize=18;fontStyle=1" vertex="1" parent="1">
          <mxGeometry x="-1880" y="1480" width="480" height="40" as="geometry" />
        </mxCell>
        <mxCell id="KVfynKzxWFTU4O8-inOF-49" value="&lt;span style=&quot;font-size: 18px;&quot;&gt;Brainstorming / Levantamento de Requisitos&lt;/span&gt;" style="rounded=1;whiteSpace=wrap;html=1;fontSize=18;fontStyle=0" vertex="1" parent="1">
          <mxGeometry x="720" y="-320" width="160" height="470" as="geometry" />
        </mxCell>
        <mxCell id="KVfynKzxWFTU4O8-inOF-51" value="&lt;span style=&quot;font-size: 18px;&quot;&gt;Análise Exploratória&lt;/span&gt;" style="rounded=1;whiteSpace=wrap;html=1;fontSize=18;fontStyle=0" vertex="1" parent="1">
          <mxGeometry x="720" y="420" width="160" height="350" as="geometry" />
        </mxCell>
        <mxCell id="KVfynKzxWFTU4O8-inOF-52" value="" style="endArrow=none;html=1;rounded=0;dashed=1;" edge="1" parent="1">
          <mxGeometry width="50" height="50" relative="1" as="geometry">
            <mxPoint x="-580" y="150" as="sourcePoint" />
            <mxPoint x="920" y="150" as="targetPoint" />
          </mxGeometry>
        </mxCell>
        <mxCell id="KVfynKzxWFTU4O8-inOF-53" value="" style="endArrow=none;html=1;rounded=0;dashed=1;" edge="1" parent="1">
          <mxGeometry width="50" height="50" relative="1" as="geometry">
            <mxPoint x="-580" y="418.57000000000005" as="sourcePoint" />
            <mxPoint x="920" y="418.57000000000005" as="targetPoint" />
          </mxGeometry>
        </mxCell>
        <mxCell id="KVfynKzxWFTU4O8-inOF-55" value="&lt;div&gt;&lt;b&gt;Fases:&lt;/b&gt;&lt;/div&gt;&lt;div&gt;&lt;b&gt;&lt;br&gt;&lt;/b&gt;&lt;/div&gt;* Verificação das fontes dos dados&lt;div&gt;&lt;span style=&quot;white-space: pre;&quot;&gt;&#x9;&lt;/span&gt;- verificar disponibilidade dos dados&lt;/div&gt;&lt;div&gt;&lt;span style=&quot;white-space: pre;&quot;&gt;&#x9;&lt;/span&gt;- explorar meios de extração&lt;br&gt;&lt;/div&gt;&lt;div&gt;&lt;span style=&quot;white-space: pre;&quot;&gt;&#x9;&lt;/span&gt;- explorar outras opções de origem&lt;br&gt;&lt;/div&gt;&lt;div&gt;&lt;span style=&quot;white-space: pre;&quot;&gt;&#x9;&lt;/span&gt;- garantir permissões de acesso aos dados&lt;br&gt;&lt;/div&gt;&lt;div&gt;&lt;br&gt;&lt;/div&gt;&lt;div&gt;* Automação da extração&lt;/div&gt;&lt;div&gt;&lt;span style=&quot;white-space: pre;&quot;&gt;&#x9;&lt;/span&gt;- avaliar extração por outros times&lt;br&gt;&lt;/div&gt;&lt;div&gt;&lt;div&gt;&lt;span style=&quot;white-space: pre;&quot;&gt;&#x9;&lt;/span&gt;- discutir opções de extração automática&lt;br&gt;&lt;/div&gt;&lt;div&gt;&lt;br&gt;&lt;/div&gt;&lt;div&gt;&lt;b&gt;Output:&lt;/b&gt;&lt;/div&gt;&lt;div&gt;- definição da fonte de origem&lt;/div&gt;&lt;div&gt;- definição da modelagem logica&lt;/div&gt;&lt;div&gt;- definição do modo de extração (ferramentas, serviços)&lt;/div&gt;&lt;div&gt;- definição do schema das tabelas (nome da tabela, nome de colunas, etc)&lt;/div&gt;&lt;div&gt;- definição dos serviços de ETL&lt;/div&gt;&lt;div&gt;&lt;br&gt;&lt;/div&gt;&lt;/div&gt;" style="text;html=1;align=left;verticalAlign=top;whiteSpace=wrap;rounded=0;fontSize=12;horizontal=1;" vertex="1" parent="1">
          <mxGeometry x="-1880" y="140" width="480" height="320" as="geometry" />
        </mxCell>
        <mxCell id="KVfynKzxWFTU4O8-inOF-57" value="&lt;div&gt;&lt;b&gt;Fases:&lt;/b&gt;&lt;/div&gt;&lt;div&gt;&lt;br&gt;&lt;/div&gt;* Análise das tabelas&lt;div&gt;&lt;span style=&quot;white-space: pre;&quot;&gt;&#x9;&lt;/span&gt;- avaliar schema das tabelas&lt;/div&gt;&lt;div&gt;&lt;span style=&quot;white-space: pre;&quot;&gt;&#x9;&lt;/span&gt;- avaliar serviços de processamento&lt;br&gt;&lt;div&gt;&lt;br&gt;&lt;/div&gt;&lt;div&gt;* Apoio&lt;/div&gt;&lt;div&gt;&lt;span style=&quot;white-space: pre;&quot;&gt;&lt;span style=&quot;white-space: pre;&quot;&gt;&#x9;&lt;/span&gt;- otimização de performance de ETL&lt;/span&gt;&lt;/div&gt;&lt;div&gt;&lt;span style=&quot;white-space: pre;&quot;&gt;&lt;span style=&quot;white-space: pre;&quot;&gt;&#x9;&lt;/span&gt;- criação e automação dos jobs do Glue&lt;br&gt;&lt;/span&gt;&lt;/div&gt;&lt;div&gt;&lt;div&gt;&lt;div&gt;&lt;br&gt;&lt;/div&gt;&lt;div&gt;&lt;br&gt;&lt;/div&gt;&lt;div&gt;&lt;b&gt;Output:&lt;/b&gt;&lt;/div&gt;&lt;div&gt;- definição do schema das tabelas&amp;nbsp;&lt;span style=&quot;background-color: initial;&quot;&gt;&amp;nbsp;&lt;/span&gt;&lt;span style=&quot;background-color: initial;&quot;&gt;(nome da tabela, nome de colunas, etc)&lt;/span&gt;&lt;/div&gt;&lt;div&gt;- definição dos serviços de processamento&lt;/div&gt;&lt;/div&gt;&lt;/div&gt;&lt;/div&gt;" style="text;html=1;align=left;verticalAlign=top;whiteSpace=wrap;rounded=0;fontSize=12;horizontal=1;" vertex="1" parent="1">
          <mxGeometry x="-2360" y="800" width="480" height="280" as="geometry" />
        </mxCell>
        <mxCell id="KVfynKzxWFTU4O8-inOF-60" value="&lt;div&gt;&lt;b&gt;Fases:&lt;/b&gt;&lt;/div&gt;&lt;div&gt;&lt;br&gt;&lt;/div&gt;* Análise das tabelas&lt;div&gt;&lt;span style=&quot;white-space: pre;&quot;&gt;&#x9;&lt;/span&gt;- avaliar schema das tabelas&lt;/div&gt;&lt;div&gt;&lt;span style=&quot;white-space: pre;&quot;&gt;&#x9;&lt;/span&gt;- avaliar serviços de processamento&lt;br&gt;&lt;div&gt;&lt;br&gt;&lt;/div&gt;&lt;div&gt;* Apoio&lt;/div&gt;&lt;div&gt;&lt;span style=&quot;white-space: pre;&quot;&gt;&lt;span style=&quot;white-space: pre;&quot;&gt;&#x9;&lt;/span&gt;- otimização de performance de ETL&lt;/span&gt;&lt;/div&gt;&lt;div&gt;&lt;span style=&quot;white-space: pre;&quot;&gt;&lt;span style=&quot;white-space: pre;&quot;&gt;&#x9;&lt;/span&gt;- criação e automação dos jobs do Glue&lt;br&gt;&lt;/span&gt;&lt;/div&gt;&lt;div&gt;&lt;div&gt;&lt;div&gt;&lt;br&gt;&lt;/div&gt;&lt;div&gt;&lt;br&gt;&lt;/div&gt;&lt;div&gt;&lt;b&gt;Output:&lt;/b&gt;&lt;/div&gt;&lt;div&gt;- definição do schema das tabelas&amp;nbsp;&lt;span style=&quot;background-color: initial;&quot;&gt;&amp;nbsp;&lt;/span&gt;&lt;span style=&quot;background-color: initial;&quot;&gt;(nome da tabela, nome de colunas, etc)&lt;/span&gt;&lt;/div&gt;&lt;div&gt;- definição dos serviços de processamento&lt;/div&gt;&lt;/div&gt;&lt;/div&gt;&lt;/div&gt;" style="text;html=1;align=left;verticalAlign=top;whiteSpace=wrap;rounded=0;fontSize=12;horizontal=1;" vertex="1" parent="1">
          <mxGeometry x="-1880" y="500" width="480" height="930" as="geometry" />
        </mxCell>
        <mxCell id="KVfynKzxWFTU4O8-inOF-62" value="" style="edgeStyle=orthogonalEdgeStyle;rounded=0;orthogonalLoop=1;jettySize=auto;html=1;entryX=0.5;entryY=0;entryDx=0;entryDy=0;strokeWidth=1;" edge="1" parent="1" source="fmr0Tmu_XqEPMl78r0tC-3" target="fmr0Tmu_XqEPMl78r0tC-11">
          <mxGeometry relative="1" as="geometry">
            <mxPoint x="360" y="100" as="sourcePoint" />
            <mxPoint x="360" y="200" as="targetPoint" />
          </mxGeometry>
        </mxCell>
        <mxCell id="KVfynKzxWFTU4O8-inOF-66" style="edgeStyle=orthogonalEdgeStyle;rounded=0;orthogonalLoop=1;jettySize=auto;html=1;entryX=0.5;entryY=0;entryDx=0;entryDy=0;" edge="1" parent="1" source="KVfynKzxWFTU4O8-inOF-63" target="KVfynKzxWFTU4O8-inOF-65">
          <mxGeometry relative="1" as="geometry" />
        </mxCell>
        <mxCell id="KVfynKzxWFTU4O8-inOF-67" style="edgeStyle=orthogonalEdgeStyle;rounded=0;orthogonalLoop=1;jettySize=auto;html=1;" edge="1" parent="1" source="KVfynKzxWFTU4O8-inOF-63" target="fmr0Tmu_XqEPMl78r0tC-34">
          <mxGeometry relative="1" as="geometry" />
        </mxCell>
        <mxCell id="KVfynKzxWFTU4O8-inOF-63" value="Temos os&amp;nbsp;&lt;div&gt;dados necessários&amp;nbsp;&lt;div&gt;para&amp;nbsp;&lt;span style=&quot;background-color: initial;&quot;&gt;criar&amp;nbsp;&lt;/span&gt;&lt;span style=&quot;background-color: initial;&quot;&gt;os&amp;nbsp;&lt;/span&gt;&lt;div&gt;book?&lt;/div&gt;&lt;/div&gt;&lt;/div&gt;" style="rhombus;whiteSpace=wrap;html=1;fontSize=10;strokeWidth=1;" vertex="1" parent="1">
          <mxGeometry x="440" y="280" width="100" height="90" as="geometry" />
        </mxCell>
        <mxCell id="KVfynKzxWFTU4O8-inOF-70" style="edgeStyle=orthogonalEdgeStyle;rounded=0;orthogonalLoop=1;jettySize=auto;html=1;" edge="1" parent="1" source="KVfynKzxWFTU4O8-inOF-65" target="fmr0Tmu_XqEPMl78r0tC-34">
          <mxGeometry relative="1" as="geometry">
            <Array as="points">
              <mxPoint x="620" y="410" />
              <mxPoint x="490" y="410" />
            </Array>
          </mxGeometry>
        </mxCell>
        <mxCell id="KVfynKzxWFTU4O8-inOF-65" value="Coleta dos dados" style="rounded=0;whiteSpace=wrap;html=1;strokeWidth=1;" vertex="1" parent="1">
          <mxGeometry x="560" y="350" width="120" height="40" as="geometry" />
        </mxCell>
        <mxCell id="KVfynKzxWFTU4O8-inOF-71" value="&lt;span style=&quot;font-size: 18px;&quot;&gt;Coleta dos Dados&lt;/span&gt;" style="rounded=1;whiteSpace=wrap;html=1;fontSize=18;fontStyle=0" vertex="1" parent="1">
          <mxGeometry x="720" y="150" width="160" height="270" as="geometry" />
        </mxCell>
        <mxCell id="fmr0Tmu_XqEPMl78r0tC-55" value="Os book&lt;div&gt;estão sendo executados&lt;/div&gt;&lt;div&gt;&amp;nbsp;no Glue?&amp;nbsp;&lt;/div&gt;" style="rhombus;whiteSpace=wrap;html=1;fontSize=11;strokeWidth=1;" parent="1" vertex="1">
          <mxGeometry x="310" y="530" width="100" height="90" as="geometry" />
        </mxCell>
        <mxCell id="fmr0Tmu_XqEPMl78r0tC-87" style="edgeStyle=orthogonalEdgeStyle;rounded=0;orthogonalLoop=1;jettySize=auto;html=1;" parent="1" source="fmr0Tmu_XqEPMl78r0tC-61" edge="1">
          <mxGeometry relative="1" as="geometry">
            <mxPoint x="360" y="650" as="targetPoint" />
            <Array as="points">
              <mxPoint x="580" y="650" />
            </Array>
          </mxGeometry>
        </mxCell>
        <mxCell id="fmr0Tmu_XqEPMl78r0tC-61" value="Criar job do Glue&lt;div&gt;do book&lt;/div&gt;" style="strokeWidth=1;html=1;shape=mxgraph.flowchart.terminator;whiteSpace=wrap;fillColor=#d5e8d4;strokeColor=#82b366;" parent="1" vertex="1">
          <mxGeometry x="520" y="555" width="120" height="40" as="geometry" />
        </mxCell>
        <mxCell id="fmr0Tmu_XqEPMl78r0tC-63" style="edgeStyle=orthogonalEdgeStyle;rounded=0;orthogonalLoop=1;jettySize=auto;html=1;entryX=0;entryY=0.5;entryDx=0;entryDy=0;entryPerimeter=0;" parent="1" source="fmr0Tmu_XqEPMl78r0tC-55" target="fmr0Tmu_XqEPMl78r0tC-61" edge="1">
          <mxGeometry relative="1" as="geometry" />
        </mxCell>
        <mxCell id="fmr0Tmu_XqEPMl78r0tC-88" value="Não" style="text;html=1;align=center;verticalAlign=middle;whiteSpace=wrap;rounded=0;" parent="1" vertex="1">
          <mxGeometry x="400" y="540" width="40" height="30" as="geometry" />
        </mxCell>
        <mxCell id="fmr0Tmu_XqEPMl78r0tC-89" value="Sim" style="text;html=1;align=center;verticalAlign=middle;whiteSpace=wrap;rounded=0;" parent="1" vertex="1">
          <mxGeometry x="360" y="610" width="40" height="30" as="geometry" />
        </mxCell>
        <mxCell id="fmr0Tmu_XqEPMl78r0tC-90" style="edgeStyle=orthogonalEdgeStyle;rounded=0;orthogonalLoop=1;jettySize=auto;html=1;entryX=0.5;entryY=0;entryDx=0;entryDy=0;strokeWidth=1;" parent="1" source="fmr0Tmu_XqEPMl78r0tC-55" target="fmr0Tmu_XqEPMl78r0tC-76" edge="1">
          <mxGeometry relative="1" as="geometry" />
        </mxCell>
        <mxCell id="KVfynKzxWFTU4O8-inOF-72" value="" style="endArrow=none;html=1;rounded=0;dashed=1;" edge="1" parent="1">
          <mxGeometry width="50" height="50" relative="1" as="geometry">
            <mxPoint x="-580" y="770" as="sourcePoint" />
            <mxPoint x="920" y="770" as="targetPoint" />
          </mxGeometry>
        </mxCell>
        <mxCell id="KVfynKzxWFTU4O8-inOF-73" value="&lt;div&gt;&lt;b&gt;Fases:&lt;/b&gt;&lt;/div&gt;&lt;div&gt;&lt;b&gt;&lt;br&gt;&lt;/b&gt;&lt;/div&gt;* Arquitetura&lt;div&gt;&lt;span style=&quot;white-space: pre;&quot;&gt;&#x9;&lt;/span&gt;- montar desenho da arquitetura do modelo&lt;/div&gt;&lt;div&gt;&lt;div&gt;&lt;span style=&quot;white-space: pre;&quot;&gt;&#x9;&lt;/span&gt;- proposta de serviços e ferramentas&lt;br&gt;&lt;/div&gt;&lt;div&gt;&lt;div&gt;&lt;br&gt;&lt;/div&gt;&lt;div&gt;* Planejamento&lt;/div&gt;&lt;div&gt;&lt;span style=&quot;white-space: pre;&quot;&gt;&#x9;&lt;/span&gt;- planejamento da implantação do modelo&lt;br&gt;&lt;/div&gt;&lt;div&gt;&lt;br&gt;&lt;/div&gt;&lt;div&gt;&lt;b&gt;Output:&lt;/b&gt;&lt;/div&gt;&lt;div&gt;- definição da arquitetura/design&lt;/div&gt;&lt;/div&gt;&lt;/div&gt;" style="text;html=1;align=left;verticalAlign=top;whiteSpace=wrap;rounded=0;fontSize=12;horizontal=1;" vertex="1" parent="1">
          <mxGeometry x="-1880" y="1520" width="480" height="280" as="geometry" />
        </mxCell>
        <mxCell id="KVfynKzxWFTU4O8-inOF-79" style="edgeStyle=orthogonalEdgeStyle;rounded=0;orthogonalLoop=1;jettySize=auto;html=1;entryX=0.5;entryY=0;entryDx=0;entryDy=0;" edge="1" parent="1" source="fmr0Tmu_XqEPMl78r0tC-76" target="KVfynKzxWFTU4O8-inOF-78">
          <mxGeometry relative="1" as="geometry" />
        </mxCell>
        <mxCell id="fmr0Tmu_XqEPMl78r0tC-76" value="Realizar a carga histórica dos book usando o job do Glue" style="rounded=0;whiteSpace=wrap;html=1;strokeWidth=1;" parent="1" vertex="1">
          <mxGeometry x="300" y="700" width="120" height="60" as="geometry" />
        </mxCell>
        <mxCell id="KVfynKzxWFTU4O8-inOF-74" value="&lt;span style=&quot;font-size: 18px;&quot;&gt;Engenharia de atributos&lt;/span&gt;" style="rounded=1;whiteSpace=wrap;html=1;fontSize=18;fontStyle=0" vertex="1" parent="1">
          <mxGeometry x="720" y="770" width="160" height="330" as="geometry" />
        </mxCell>
        <mxCell id="KVfynKzxWFTU4O8-inOF-75" value="&lt;span style=&quot;font-size: 18px;&quot;&gt;Treinamento e Avaliação do Modelo&lt;/span&gt;" style="rounded=1;whiteSpace=wrap;html=1;fontSize=18;fontStyle=0" vertex="1" parent="1">
          <mxGeometry x="720" y="1100" width="160" height="100" as="geometry" />
        </mxCell>
        <mxCell id="KVfynKzxWFTU4O8-inOF-76" value="&lt;span style=&quot;font-size: 18px;&quot;&gt;Deploy do Modelo&lt;/span&gt;" style="rounded=1;whiteSpace=wrap;html=1;fontSize=18;fontStyle=0" vertex="1" parent="1">
          <mxGeometry x="720" y="1200" width="160" height="170" as="geometry" />
        </mxCell>
        <mxCell id="KVfynKzxWFTU4O8-inOF-77" value="" style="endArrow=none;html=1;rounded=0;dashed=1;" edge="1" parent="1">
          <mxGeometry width="50" height="50" relative="1" as="geometry">
            <mxPoint x="-580" y="1100" as="sourcePoint" />
            <mxPoint x="920" y="1100" as="targetPoint" />
          </mxGeometry>
        </mxCell>
        <mxCell id="KVfynKzxWFTU4O8-inOF-82" style="edgeStyle=orthogonalEdgeStyle;rounded=0;orthogonalLoop=1;jettySize=auto;html=1;" edge="1" parent="1" source="KVfynKzxWFTU4O8-inOF-78" target="KVfynKzxWFTU4O8-inOF-80">
          <mxGeometry relative="1" as="geometry" />
        </mxCell>
        <mxCell id="KVfynKzxWFTU4O8-inOF-78" value="Desenvolver as features do modelo" style="rounded=0;whiteSpace=wrap;html=1;strokeWidth=1;" vertex="1" parent="1">
          <mxGeometry x="300" y="800" width="120" height="40" as="geometry" />
        </mxCell>
        <mxCell id="KVfynKzxWFTU4O8-inOF-83" style="edgeStyle=orthogonalEdgeStyle;rounded=0;orthogonalLoop=1;jettySize=auto;html=1;" edge="1" parent="1" source="KVfynKzxWFTU4O8-inOF-84" target="KVfynKzxWFTU4O8-inOF-81">
          <mxGeometry relative="1" as="geometry" />
        </mxCell>
        <mxCell id="KVfynKzxWFTU4O8-inOF-80" value="Criar job/tabela de features" style="rounded=0;whiteSpace=wrap;html=1;strokeWidth=1;" vertex="1" parent="1">
          <mxGeometry x="300" y="880" width="120" height="40" as="geometry" />
        </mxCell>
        <mxCell id="KVfynKzxWFTU4O8-inOF-88" style="edgeStyle=orthogonalEdgeStyle;rounded=0;orthogonalLoop=1;jettySize=auto;html=1;" edge="1" parent="1" source="KVfynKzxWFTU4O8-inOF-81" target="fmr0Tmu_XqEPMl78r0tC-72">
          <mxGeometry relative="1" as="geometry" />
        </mxCell>
        <mxCell id="KVfynKzxWFTU4O8-inOF-81" value="Realizar carga histórica das tabelas de features" style="rounded=0;whiteSpace=wrap;html=1;strokeWidth=1;" vertex="1" parent="1">
          <mxGeometry x="300" y="1040" width="120" height="40" as="geometry" />
        </mxCell>
        <mxCell id="fmr0Tmu_XqEPMl78r0tC-72" value="Desenvolver modelo" style="rounded=0;whiteSpace=wrap;html=1;strokeWidth=1;" parent="1" vertex="1">
          <mxGeometry x="300" y="1130" width="120" height="40" as="geometry" />
        </mxCell>
        <mxCell id="fmr0Tmu_XqEPMl78r0tC-114" style="edgeStyle=orthogonalEdgeStyle;rounded=0;orthogonalLoop=1;jettySize=auto;html=1;" parent="1" source="fmr0Tmu_XqEPMl78r0tC-72" target="fmr0Tmu_XqEPMl78r0tC-113" edge="1">
          <mxGeometry relative="1" as="geometry">
            <Array as="points">
              <mxPoint x="360" y="1240" />
              <mxPoint x="180" y="1240" />
            </Array>
          </mxGeometry>
        </mxCell>
        <mxCell id="fmr0Tmu_XqEPMl78r0tC-115" style="edgeStyle=orthogonalEdgeStyle;rounded=0;orthogonalLoop=1;jettySize=auto;html=1;" parent="1" edge="1" source="fmr0Tmu_XqEPMl78r0tC-99">
          <mxGeometry relative="1" as="geometry">
            <mxPoint x="0.0034782608697128126" y="1150.0008695652173" as="sourcePoint" />
            <mxPoint x="180.0034782608695" y="1340.04" as="targetPoint" />
            <Array as="points">
              <mxPoint y="1240" />
              <mxPoint x="180" y="1240" />
            </Array>
          </mxGeometry>
        </mxCell>
        <mxCell id="fmr0Tmu_XqEPMl78r0tC-113" value="Implantar modelo" style="strokeWidth=2;html=1;shape=mxgraph.flowchart.terminator;whiteSpace=wrap;fontSize=15;" parent="1" vertex="1">
          <mxGeometry x="110" y="1300.04" width="140" height="60" as="geometry" />
        </mxCell>
        <mxCell id="KVfynKzxWFTU4O8-inOF-85" value="" style="edgeStyle=orthogonalEdgeStyle;rounded=0;orthogonalLoop=1;jettySize=auto;html=1;" edge="1" parent="1" source="KVfynKzxWFTU4O8-inOF-80" target="KVfynKzxWFTU4O8-inOF-84">
          <mxGeometry relative="1" as="geometry">
            <mxPoint x="360" y="920" as="sourcePoint" />
            <mxPoint x="360" y="1050" as="targetPoint" />
          </mxGeometry>
        </mxCell>
        <mxCell id="KVfynKzxWFTU4O8-inOF-84" value="Criar job/tabela de features preparadas" style="rounded=0;whiteSpace=wrap;html=1;strokeWidth=1;" vertex="1" parent="1">
          <mxGeometry x="300" y="960" width="120" height="40" as="geometry" />
        </mxCell>
        <mxCell id="KVfynKzxWFTU4O8-inOF-87" value="" style="endArrow=none;html=1;rounded=0;dashed=1;" edge="1" parent="1">
          <mxGeometry width="50" height="50" relative="1" as="geometry">
            <mxPoint x="-580" y="1198.57" as="sourcePoint" />
            <mxPoint x="920" y="1198.57" as="targetPoint" />
          </mxGeometry>
        </mxCell>
        <mxCell id="KVfynKzxWFTU4O8-inOF-91" value="&lt;span style=&quot;font-size: 18px;&quot;&gt;Brainstorming / Levantamento de Requisitos&lt;/span&gt;" style="rounded=1;whiteSpace=wrap;html=1;fontSize=18;fontStyle=0" vertex="1" parent="1">
          <mxGeometry x="-810" y="-329.96" width="160" height="470" as="geometry" />
        </mxCell>
        <mxCell id="KVfynKzxWFTU4O8-inOF-92" value="&lt;span style=&quot;font-size: 18px;&quot;&gt;Análise Exploratória&lt;/span&gt;" style="rounded=1;whiteSpace=wrap;html=1;fontSize=18;fontStyle=0" vertex="1" parent="1">
          <mxGeometry x="-810" y="410.04" width="160" height="350" as="geometry" />
        </mxCell>
        <mxCell id="KVfynKzxWFTU4O8-inOF-93" value="&lt;span style=&quot;font-size: 18px;&quot;&gt;Coleta dos Dados&lt;/span&gt;" style="rounded=1;whiteSpace=wrap;html=1;fontSize=18;fontStyle=0" vertex="1" parent="1">
          <mxGeometry x="-810" y="140.04" width="160" height="270" as="geometry" />
        </mxCell>
        <mxCell id="KVfynKzxWFTU4O8-inOF-94" value="&lt;span style=&quot;font-size: 18px;&quot;&gt;Engenharia de atributos&lt;/span&gt;" style="rounded=1;whiteSpace=wrap;html=1;fontSize=18;fontStyle=0" vertex="1" parent="1">
          <mxGeometry x="-810" y="760.04" width="160" height="330" as="geometry" />
        </mxCell>
        <mxCell id="KVfynKzxWFTU4O8-inOF-95" value="&lt;span style=&quot;font-size: 18px;&quot;&gt;Treinamento e Avaliação do Modelo&lt;/span&gt;" style="rounded=1;whiteSpace=wrap;html=1;fontSize=18;fontStyle=0" vertex="1" parent="1">
          <mxGeometry x="-810" y="1090.04" width="160" height="100" as="geometry" />
        </mxCell>
        <mxCell id="KVfynKzxWFTU4O8-inOF-96" value="&lt;span style=&quot;font-size: 18px;&quot;&gt;Deploy do Modelo&lt;/span&gt;" style="rounded=1;whiteSpace=wrap;html=1;fontSize=18;fontStyle=0" vertex="1" parent="1">
          <mxGeometry x="-810" y="1190.04" width="160" height="170" as="geometry" />
        </mxCell>
      </root>
    </mxGraphModel>
  </diagram>
</mxfile>
